<?xml version="1.0" encoding="UTF-8"?>
<!DOCTYPE svg PUBLIC "-//W3C//DTD SVG 1.1//EN" "http://www.w3.org/Graphics/SVG/1.1/DTD/svg11.dtd">
<!-- Creator: CorelDRAW -->
<svg xmlns="http://www.w3.org/2000/svg" xml:space="preserve" width="297mm" height="210mm" version="1.1" style="shape-rendering:geometricPrecision; text-rendering:geometricPrecision; image-rendering:optimizeQuality; fill-rule:evenodd; clip-rule:evenodd"
viewBox="0 0 29700 21000"
 xmlns:xlink="http://www.w3.org/1999/xlink"
 xmlns:xodm="http://www.corel.com/coreldraw/odm/2003">
 <defs>
  <style type="text/css">
   <![CDATA[
    .fil4 {fill:#585570}
    .fil11 {fill:#3E4095}
    .fil10 {fill:#3E4095}
    .fil8 {fill:#213EB9}
    .fil7 {fill:#336699}
    .fil1 {fill:#0E6A9C;fill-rule:nonzero}
    .fil0 {fill:#213EB9;fill-rule:nonzero}
    .fil9 {fill:url(#id2)}
    .fil6 {fill:url(#id3)}
    .fil3 {fill:url(#id4)}
    .fil12 {fill:url(#id5)}
    .fil5 {fill:url(#id6)}
    .fil2 {fill:url(#id7)}
   ]]>
  </style>
    <clipPath id="id0">
     <path d="M1747.25 5527.43l9207.32 0 -216.18 9920.23 -9207.32 0 216.18 -9920.23z"/>
    </clipPath>
    <clipPath id="id1">
     <path d="M2438.22 13141.85l16304.74 0 0 2876.5 -16304.74 0 0 -2876.5z"/>
    </clipPath>
  <linearGradient id="id2" gradientUnits="userSpaceOnUse" x1="1963.62" y1="4881.15" x2="26288.54" y2="13683.42">
   <stop offset="0" style="stop-opacity:1; stop-color:#282828"/>
   <stop offset="1" style="stop-opacity:1; stop-color:#338AC6"/>
  </linearGradient>
  <linearGradient id="id3" gradientUnits="userSpaceOnUse" xlink:href="#id2" x1="-16664.53" y1="-2183.55" x2="21922.77" y2="11779.73">
  </linearGradient>
  <linearGradient id="id4" gradientUnits="userSpaceOnUse" xlink:href="#id2" x1="9229.59" y1="7130.78" x2="40217.49" y2="11037.97">
  </linearGradient>
  <linearGradient id="id5" gradientUnits="userSpaceOnUse" xlink:href="#id2" x1="-9987.47" y1="7451.77" x2="47121.59" y2="14652.52">
  </linearGradient>
  <linearGradient id="id6" gradientUnits="userSpaceOnUse" xlink:href="#id2" x1="1515.47" y1="9444.65" x2="37003.83" y2="13919.29">
  </linearGradient>
  <linearGradient id="id7" gradientUnits="userSpaceOnUse" xlink:href="#id2" x1="-8066.12" y1="3778.18" x2="49042.95" y2="10978.93">
  </linearGradient>
 </defs>
 <g id="Layer_x0020_1">
  <metadata id="CorelCorpID_0Corel-Layer"/>
  <path class="fil0" d="M10047.54 10810.39l-260.59 -4320.51c-141.39,-2345.13 -4667.28,-1253.39 -5892.06,-33.37 972.43,-757.05 5284.49,-1696.41 5616.23,615.36l536.42 3738.52z"/>
  <g id="_1665469161424">
   <g style="clip-path:url(#id0)">
    <image x="1531.07" y="5527.43" width="9423.5" height="9920.23" xlink:href="Logo_tet_text_transparent_Images\Logo_tet_text_transparent_ImgID1.png"/>
   </g>
  </g>
  <path class="fil1" d="M10043.29 13368.99c-1101.18,-755.97 -2620.12,-874.68 -3924.7,-551.71 -1304.45,322.98 -3728.52,2274.08 -3483.27,866.99l1259.57 -7227.76 -671.43 6421.67c-101,966.46 1055.54,-141.01 3109.04,-389.49 2467.12,-298.6 3710.79,880.3 3710.79,880.3z"/>
  <g id="_1665469159552">
   <g style="clip-path:url(#id1)">
    <image x="2438.22" y="13141.85" width="16304.74" height="2876.5" xlink:href="Logo_tet_text_transparent_Images\Logo_tet_text_transparent_ImgID2.png"/>
   </g>
  </g>
  <path class="fil0" d="M14025.49 13244.04c1934.86,51.37 4846.19,1890.66 4096.94,1890.66l-824.36 0c-965.18,0 -1673.6,-1487.06 -3305.14,-1481.7 -1127.47,3.64 -1983.81,398.27 -2532.46,759.67 -90.92,59.79 -145.35,159.91 -145.35,266.98 0,177.88 -147.51,322.01 -329.44,322.01l-468.51 0c-182.02,0 -329.47,-144.13 -329.47,-322.01 0,-107.07 -54.4,-207.19 -145.41,-266.98 -548.57,-361.4 -1404.99,-756.03 -2532.47,-759.67 -1631.45,-5.36 -2698.14,1481.7 -3618.03,1481.7l-859.63 0c-749.28,0 2510.31,-1839.29 4445.16,-1890.66 1557.66,-41.34 2620.1,648.68 3056.92,999.26 126.3,101.43 308.06,101.43 434.37,0 436.82,-350.58 1499.23,-1040.6 3056.88,-999.26z"/>
  <path class="fil0" d="M11238.07 10810.36l260.59 -4312.44c141.39,-2340.75 4667.24,-1251.05 5892,-33.31 -972.41,-755.63 -5284.43,-1693.23 -5616.17,614.21l-536.42 3731.54z"/>
  <path class="fil2" d="M16249.76 7191.06c190.35,44.1 382.4,-71.21 427.6,-256.47 45.25,-185.48 -73.01,-372.6 -263.36,-416.7 -190.19,-44.06 -382.13,71.21 -427.38,256.69 -45.2,185.25 72.96,372.42 263.14,416.48z"/>
  <path class="fil3" d="M15741.91 8138.48c102.2,23.67 205.47,-38.33 229.77,-137.93 24.33,-99.73 -39.26,-200.38 -141.46,-224.05 -102.28,-23.7 -205.56,38.3 -229.89,138.02 -24.3,99.6 39.3,200.26 141.58,223.96z"/>
  <path class="fil4" d="M13330.03 7935.66c102.26,23.69 205.51,-38.14 229.84,-137.87 24.31,-99.63 -39.32,-200.2 -141.58,-223.89 -102.31,-23.7 -205.55,38.21 -229.86,137.85 -24.33,99.72 39.3,200.21 141.6,223.91z"/>
  <path class="fil5" d="M12133.08 11000.45c118.92,27.55 239.1,-44.53 267.4,-160.5 28.28,-115.93 -45.76,-233 -164.67,-260.54 -118.97,-27.56 -239.16,44.51 -267.44,160.44 -28.3,115.97 45.74,233.04 164.71,260.6z"/>
  <path class="fil6" d="M14194.57 9471.23c253.52,58.73 509.4,-94.76 569.7,-341.91 60.27,-247.04 -97.37,-496.21 -350.9,-554.94 -253.52,-58.73 -509.32,94.66 -569.59,341.7 -60.3,247.15 97.26,496.42 350.79,555.15z"/>
  <path class="fil7" d="M17457.27 7838.6c152.41,35.31 306.45,-57.09 342.68,-205.59 36.26,-148.62 -58.66,-298.56 -211.06,-333.86 -152.44,-35.32 -306.29,56.99 -342.55,205.62 -36.23,148.49 58.49,298.52 210.93,333.83z"/>
  <path class="fil8" d="M12613.79 12404.98c216.47,50.14 434.84,-80.68 486.37,-291.89 51.4,-210.7 -83.06,-423.8 -299.52,-473.94 -216.37,-50.12 -435.01,81.18 -486.41,291.88 -51.53,211.2 83.2,423.83 299.56,473.95z"/>
  <path class="fil9" d="M15715.88 10170.12c162.26,37.59 326.24,-60.77 364.83,-218.93 38.59,-158.18 -62.42,-317.93 -224.68,-355.52 -162.38,-37.61 -326.23,60.78 -364.82,218.96 -38.59,158.15 62.29,317.87 224.67,355.49z"/>
  <path class="fil10" d="M17413.64 9505.35c253.44,58.71 509.38,-94.49 569.65,-341.5 60.25,-246.96 -97.38,-496.72 -350.82,-555.43 -253.34,-58.69 -509.35,95.25 -569.6,342.21 -60.26,247.02 97.43,496.03 350.77,554.72z"/>
  <path class="fil8" d="M12610.42 9509.97c162.38,37.61 326.23,-60.66 364.79,-218.72 38.61,-158.23 -62.27,-318.07 -224.65,-355.69 -162.29,-37.6 -326.23,60.91 -364.83,219.14 -38.56,158.05 62.4,317.67 224.69,355.27z"/>
  <path class="fil11" d="M10780.46 12723.43c152.34,35.29 306.31,-57.05 342.56,-205.62 36.24,-148.52 -58.62,-298.5 -210.96,-333.79 -152.42,-35.31 -306.39,57.03 -342.63,205.55 -36.25,148.57 58.61,298.55 211.03,333.86z"/>
  <path class="fil10" d="M14919.29 12531.74c253.44,58.72 509.38,-94.48 569.64,-341.5 60.25,-246.96 -97.37,-496.71 -350.82,-555.43 -253.34,-58.68 -509.34,95.25 -569.6,342.22 -60.26,247.01 97.44,496.03 350.78,554.71z"/>
  <path class="fil12" d="M14328.41 10864.65c190.35,44.1 382.4,-71.21 427.6,-256.47 45.25,-185.48 -73.02,-372.6 -263.37,-416.7 -190.18,-44.06 -382.12,71.21 -427.37,256.69 -45.2,185.25 72.95,372.42 263.14,416.48z"/>
  <path class="fil0" d="M20031.53 10016.5c-100.25,306.55 -203.98,505.87 -310.06,596.79 -107.23,89.75 -290.23,135.21 -550.16,135.21 -9.33,0 -40.8,-1.16 -96.75,-3.49 -55.95,-2.33 -106.07,-3.5 -152.69,-3.5 -206.32,0 -333.37,20.98 -379.99,61.78 -46.63,40.79 -69.94,128.21 -69.94,259.93l0 2930.35c0,223.79 29.14,371.83 87.42,444.09 57.11,73.44 169.01,111.9 332.2,116.57 -61.78,234.28 -135.21,389.31 -220.3,466.24 -85.09,75.76 -230.79,114.23 -434.77,114.23l-1023.41 0c59.44,-121.22 103.74,-265.76 131.71,-433.61 29.14,-169.01 43.13,-362.5 43.13,-580.47l0 -3071.39c0,-143.37 -23.31,-235.45 -69.94,-275.08 -46.62,-39.63 -153.86,-59.45 -322.87,-59.45 -314.72,0 -545.51,9.33 -694.71,29.14 -149.19,19.82 -278.58,51.29 -388.14,96.75 83.92,-292.57 186.49,-491.89 305.39,-596.8 120.05,-106.07 307.72,-158.52 561.82,-158.52 52.45,0 275.09,6.99 667.9,22.15 392.81,15.15 759.98,22.14 1101.5,22.14 428.94,0 754.15,-9.32 979.11,-26.81 223.8,-18.65 391.65,-46.62 503.55,-86.25z"/>
  <path id="_1" class="fil0" d="M20833.47 10085.27l2742.69 0c-47.79,327.54 -129.39,551.33 -245.95,670.23 -115.39,118.89 -315.88,191.16 -600.29,216.8 16.32,-37.3 26.81,-67.6 33.81,-92.08 6.99,-25.65 10.49,-45.46 10.49,-61.78 0,-64.11 -43.13,-110.73 -129.39,-141.04 -87.42,-31.47 -221.46,-46.62 -403.3,-46.62 -332.2,0 -531.52,22.14 -595.63,65.27 -65.27,43.13 -97.91,132.88 -97.91,269.26l0 1057.21 1056.05 0c60.61,0 124.72,-5.83 192.32,-17.49 67.61,-10.49 143.37,-29.14 227.3,-54.78 -74.6,273.92 -152.7,449.92 -231.96,528.02 -80.43,78.1 -219.14,117.73 -417.29,117.73l-826.42 0 0 1362.6c0,152.69 10.49,263.43 32.64,329.87 20.98,67.6 57.11,115.39 107.24,145.7 52.45,31.47 121.22,53.62 205.14,66.44 83.93,12.82 222.64,18.65 417.29,18.65l511.71 0c198.15,0 357.84,-8.16 477.9,-24.48 121.22,-15.15 227.29,-40.8 318.21,-74.6 -61.78,300.73 -137.54,495.38 -228.46,582.81 -92.08,87.42 -278.58,131.71 -560.66,131.71l-2525.88 0c52.45,-121.22 92.08,-244.78 120.06,-370.66 26.81,-127.06 40.79,-257.6 40.79,-391.65l0 -3155.31c0,-192.33 -27.97,-324.04 -85.09,-393.98 -57.11,-68.77 -163.18,-113.06 -320.54,-130.55 52.45,-236.62 127.05,-397.47 223.8,-481.39 96.74,-83.93 280.91,-125.89 551.33,-125.89z"/>
  <path id="_2" class="fil0" d="M27759.54 10016.5c-100.25,306.55 -203.98,505.87 -310.06,596.79 -107.23,89.75 -290.23,135.21 -550.16,135.21 -9.33,0 -40.8,-1.16 -96.75,-3.49 -55.95,-2.33 -106.07,-3.5 -152.69,-3.5 -206.32,0 -333.37,20.98 -379.99,61.78 -46.63,40.79 -69.94,128.21 -69.94,259.93l0 2930.35c0,223.79 29.14,371.83 87.42,444.09 57.11,73.44 169.01,111.9 332.2,116.57 -61.78,234.28 -135.21,389.31 -220.3,466.24 -85.09,75.76 -230.79,114.23 -434.77,114.23l-1023.41 0c59.44,-121.22 103.74,-265.76 131.71,-433.61 29.14,-169.01 43.13,-362.5 43.13,-580.47l0 -3071.39c0,-143.37 -23.31,-235.45 -69.94,-275.08 -46.62,-39.63 -153.86,-59.45 -322.87,-59.45 -314.72,0 -545.51,9.33 -694.71,29.14 -149.19,19.82 -278.58,51.29 -388.14,96.75 83.92,-292.57 186.49,-491.89 305.39,-596.8 120.05,-106.07 307.72,-158.52 561.82,-158.52 52.45,0 275.09,6.99 667.9,22.15 392.81,15.15 759.98,22.14 1101.5,22.14 428.94,0 754.15,-9.32 979.11,-26.81 223.8,-18.65 391.65,-46.62 503.55,-86.25z"/>
 </g>
</svg>
